<?xml version="1.0" encoding="utf-8" ?>
<svg xmlns="http://www.w3.org/2000/svg" xmlns:xlink="http://www.w3.org/1999/xlink" width="1228" height="1228">
	<path fill="#111010" transform="scale(2.39844 2.39844)" d="M0 0L0 512L512 512L512 0L0 0Z"/>
	<path fill="#10E06F" transform="scale(2.39844 2.39844)" d="M255.903 223.601L236.784 223.829L236.652 120.922C236.865 117.153 237.905 117.208 240.458 114.429L256.123 97.9746L273.607 116.557C275.945 119.152 275.41 119.368 275.394 122.741L275.193 223.631L255.903 223.601Z"/>
	<path fill="#10E06F" transform="scale(2.39844 2.39844)" d="M141.781 220.621L193.8 162.712C194.491 162.014 195.516 160.956 196.47 160.694C196.179 171.714 196.762 275.234 196.267 276.143C195.657 277.264 193.769 278.527 192.874 279.522L161.966 313.282C151.698 325.276 148.973 332.666 149.51 349.176C153.144 345.182 157.173 341.582 161.145 337.933L193.26 307.411C195.832 304.998 195.616 305.743 196.363 308.513L197.847 313.977C214.684 372.419 295.992 372.42 314.543 313.902C315.388 311.236 315.899 308.477 316.469 305.741C317.863 306.469 318.962 307.566 320.099 308.63L341.264 328.756C348.323 335.565 355.861 342.04 362.43 349.335L362.357 343.283C361.846 325.09 355.439 319.107 343.494 306.145L323.464 284.528C320.978 281.819 318.57 279.069 315.891 276.545C315.594 274.991 315.686 273.247 315.684 271.662L315.67 171.708C315.673 167.958 315.589 164.215 315.938 160.477L316.541 160.951C317.847 162.054 319.006 163.536 320.17 164.8L405.491 260.51C423.774 282.061 433.101 298.876 435.591 328.091C438.879 366.665 423.977 400.724 384.273 410.335C375.232 412.524 366.261 412.229 357.042 412.237L151.476 412.23C145.508 412.224 139.578 412.343 133.664 411.385C109.234 407.428 88.1589 390.919 80.1796 367.276C71.0868 340.333 76.8802 303.84 92.0331 279.88C96.8408 272.277 102.747 265.358 108.52 258.477L141.781 220.621Z"/>
	<path fill="#10E06F" transform="scale(2.39844 2.39844)" d="M258.566 293.537C230.29 296.047 224.772 254.255 253.243 250.064C264.657 248.769 275.947 256.83 277.441 268.406C278.984 280.357 270.804 292.143 258.566 293.537Z"/>
</svg>
