<?xml version="1.0" encoding="utf-8" ?>
<svg xmlns="http://www.w3.org/2000/svg" xmlns:xlink="http://www.w3.org/1999/xlink" width="1378" height="1378">
	<path fill="#111010" transform="scale(2.69141 2.69141)" d="M0 0L0 512L512 512L512 0L0 0Z"/>
	<path fill="#10E06F" transform="scale(2.69141 2.69141)" d="M271.885 327.927L219.646 327.725C218.556 329.871 217.02 331.905 215.642 333.882L157.131 417.475C153.997 421.929 150.999 426.806 147.545 430.998C144.062 435.226 137.363 435.829 136.588 429.046C136.178 425.465 136.39 421.679 136.388 418.074L136.432 328.503C136.427 328.167 136.498 327.914 136.146 327.918L126.955 327.962C120.159 327.976 112.782 328.465 106.08 327.25C90.7053 324.462 79.4723 311.26 76.6276 296.262C75.2915 289.217 75.8238 281.592 75.8221 274.44L75.7376 114.601C75.3462 96.4624 88.577 79.3614 106.589 76.1906C110.684 75.47 114.741 75.5046 118.877 75.5006L133.253 75.4309L326.27 75.4929C348.846 75.6306 353.706 83.7232 367.124 100.404L415.487 160.49C420.867 167.17 427.128 173.843 431.305 181.355C437.566 192.617 438.177 208.002 431.997 219.45C429.097 224.819 424.829 229.722 421.118 234.569L363.823 307.752C351.882 323.259 344.549 327.98 325.549 327.96L271.885 327.927ZM212.187 130.861C201.341 131.523 188.001 142.235 178.663 147.7L104.877 191.203C100.713 193.784 95.7014 196.854 96.1478 202.508C96.7584 210.242 103.953 212.863 109.766 216.2L189.612 263.473C196.681 267.521 204.333 272.817 212.791 272.649C223.7 272.01 233.926 264.087 243.091 258.677L316.242 215.344C322.688 211.59 329.336 208.696 328.48 199.881C327.907 193.983 322.28 191.301 317.736 188.699L241.302 143.734C233.346 139.035 221.801 130.486 212.187 130.861Z"/>
	<path fill="#10E06F" transform="scale(2.69141 2.69141)" d="M215.922 238.35C212.37 238.534 208.805 238.472 205.309 237.759C178.239 232.241 168.46 197.615 186.368 177.43C193.167 169.768 201.669 165.742 211.741 165.169C242.656 163.556 261.829 201.323 241.22 225.421C234.76 232.976 225.833 237.592 215.922 238.35Z"/>
</svg>
