<?xml version="1.0" encoding="utf-8" ?>
<svg xmlns="http://www.w3.org/2000/svg" xmlns:xlink="http://www.w3.org/1999/xlink" width="1377" height="1377">
	<path fill="#111010" transform="scale(2.69133 2.69133)" d="M0 0L0 512L512 512L512 0L0 0Z"/>
	<path fill="#10E06F" transform="scale(2.69133 2.69133)" d="M434.499 194.26L434.541 362.382L323.349 362.237C321.155 362.232 318.886 362.988 317.863 360.802L266.299 237.683C265.04 234.578 263.894 231.214 262.319 228.263C259.454 222.896 251.83 222.348 249.436 227.028C248.143 229.557 247.449 232.687 246.413 235.361L194.207 362.508L77.3253 362.563C77.7116 358.58 77.5196 354.379 77.5197 350.378L77.8048 165.735C77.8326 161.913 76.9625 144.931 79.0448 142.754C83.0618 143.141 86.786 153.445 88.465 156.946L130.982 247.948L152.179 296.42C152.84 297.813 153.649 299.765 155.163 300.367L155.387 300.45C160.281 302.302 162.872 291.764 164.308 288.39L189.461 232.943L215.383 176.833L222.485 162.104C224.684 157.401 226.579 152.481 229.159 147.973C235.151 148.236 282.319 147.646 283.337 148.276C283.787 148.553 289.496 161.419 290.27 163.066L323.47 233.98L347.957 288.116C349.541 291.837 351.571 300.952 357.157 299.448C360.611 298.519 361.5 294.706 362.67 291.76L391.202 226.86L419.691 165.621C421.492 161.88 429.426 141.129 434.601 143.319C434.855 144.474 434.558 145.913 434.537 147.11L434.499 194.26Z"/>
	<path fill="#10E06F" transform="scale(2.69133 2.69133)" d="M258.714 361.889C224.852 364.611 217.421 314.83 248.848 307.295C250.451 306.911 252.132 306.799 253.77 306.666C291.114 305.454 293.63 358.04 258.714 361.889Z"/>
</svg>
